<?xml version="1.0" encoding="UTF-8"?>
<!DOCTYPE svg PUBLIC "-//W3C//DTD SVG 1.1//EN" "http://www.w3.org/Graphics/SVG/1.1/DTD/svg11.dtd">
<svg xmlns="http://www.w3.org/2000/svg" version="1.1" width="1402px" height="1345px" style="shape-rendering:geometricPrecision; text-rendering:geometricPrecision; image-rendering:optimizeQuality; fill-rule:evenodd; clip-rule:evenodd" xmlns:xlink="http://www.w3.org/1999/xlink">
<g><path style="opacity:0.994" fill="#000000" d="M 115.5,76.5 C 282.543,76.0054 449.543,76.5054 616.5,78C 627.204,82.5603 634.371,90.3937 638,101.5C 639.298,147.472 639.964,193.472 640,239.5C 644.241,254.74 654.075,264.24 669.5,268C 713.833,268.333 758.167,268.667 802.5,269C 818.882,272.716 828.382,282.883 831,299.5C 831.667,338.833 831.667,378.167 831,417.5C 828.291,434.542 818.458,444.709 801.5,448C 757.167,448.333 712.833,448.667 668.5,449C 650.923,453.308 641.089,464.475 639,482.5C 638.667,526.5 638.333,570.5 638,614.5C 634.058,628.109 625.225,636.609 611.5,640C 507.5,640.333 403.5,640.667 299.5,641C 283.104,644.396 272.938,654.229 269,670.5C 268.333,718.833 268.333,767.167 269,815.5C 272.223,829.723 280.723,839.223 294.5,844C 463.458,845.328 632.458,845.995 801.5,846C 818,849.167 827.833,859 831,875.5C 831.667,915.5 831.667,955.5 831,995.5C 827.602,1010.56 818.436,1020.06 803.5,1024C 637.124,1024.99 470.791,1024.66 304.5,1023C 292.837,1018.67 285.337,1010.5 282,998.5C 281.667,954.5 281.333,910.5 281,866.5C 278.487,848.276 268.321,837.109 250.5,833C 206.167,832.667 161.833,832.333 117.5,832C 100.655,828.155 91.1555,817.655 89,800.5C 88.3333,761.833 88.3333,723.167 89,684.5C 90.8111,668.697 99.3111,658.53 114.5,654C 158.167,653.667 201.833,653.333 245.5,653C 265.291,650.876 277.124,640.043 281,620.5C 281.333,576.167 281.667,531.833 282,487.5C 286.131,472.347 295.964,463.513 311.5,461C 415.167,460.667 518.833,460.333 622.5,460C 639.898,455.072 649.731,443.572 652,425.5C 652.965,378.138 652.632,330.805 651,283.5C 646.927,270.427 638.427,261.594 625.5,257C 456.201,255.673 286.868,255.007 117.5,255C 100.179,251.013 90.6787,240.179 89,222.5C 88.3333,184.5 88.3333,146.5 89,108.5C 91.1451,92.1965 99.9784,81.5299 115.5,76.5 Z"/></g>
<g><path style="opacity:0.995" fill="#000000" d="M 944.5,76.5 C 986.501,76.3333 1028.5,76.5 1070.5,77C 1084.64,80.4733 1093.47,89.3067 1097,103.5C 1097.33,148.167 1097.67,192.833 1098,237.5C 1101.42,253.922 1111.26,264.089 1127.5,268C 1171.83,268.333 1216.17,268.667 1260.5,269C 1275.36,271.527 1284.86,280.027 1289,294.5C 1289.67,529.167 1289.67,763.833 1289,998.5C 1285.73,1010.1 1278.56,1018.27 1267.5,1023C 1223.89,1024.65 1180.23,1024.98 1136.5,1024C 1122.48,1019.98 1113.98,1010.81 1111,996.5C 1110.67,759.833 1110.33,523.167 1110,286.5C 1106.5,269.667 1096.33,259.5 1079.5,256C 1035.5,255.667 991.5,255.333 947.5,255C 932.224,252.392 922.724,243.558 919,228.5C 918.333,186.833 918.333,145.167 919,103.5C 922.577,89.759 931.077,80.759 944.5,76.5 Z"/></g>
<g><path style="opacity:1" fill="#f9f9f9" d="M 1139.5,312.5 C 1145.84,312.334 1152.18,312.5 1158.5,313C 1159,313.5 1159.5,314 1160,314.5C 1160.33,343.167 1160.67,371.833 1161,400.5C 1161.37,401.416 1161.87,402.25 1162.5,403C 1169.5,403.667 1176.5,403.667 1183.5,403C 1184,402.5 1184.5,402 1185,401.5C 1185.02,372.081 1185.68,342.747 1187,313.5C 1193.75,312.355 1200.59,312.189 1207.5,313C 1208.13,313.75 1208.63,314.584 1209,315.5C 1209.33,344.167 1209.67,372.833 1210,401.5C 1210.5,402 1211,402.5 1211.5,403C 1218.17,403.667 1224.83,403.667 1231.5,403C 1232.67,402.5 1233.5,401.667 1234,400.5C 1234.33,371.833 1234.67,343.167 1235,314.5C 1235.5,314 1236,313.5 1236.5,313C 1242.83,312.333 1249.17,312.333 1255.5,313C 1256,313.5 1256.5,314 1257,314.5C 1257.82,343.209 1257.66,371.876 1256.5,400.5C 1255.97,401.192 1255.31,401.692 1254.5,402C 1248.17,402.333 1241.83,402.667 1235.5,403C 1235,403.5 1234.5,404 1234,404.5C 1233.67,410.833 1233.33,417.167 1233,423.5C 1232.63,424.416 1232.13,425.25 1231.5,426C 1224.81,426.831 1218.14,426.664 1211.5,425.5C 1211.19,424.692 1210.69,424.025 1210,423.5C 1209.83,416.809 1209.33,410.142 1208.5,403.5C 1200.97,402.18 1193.47,402.18 1186,403.5C 1184.74,410.394 1184.07,417.394 1184,424.5C 1183.5,425 1183,425.5 1182.5,426C 1176.17,426.667 1169.83,426.667 1163.5,426C 1162.87,425.25 1162.37,424.416 1162,423.5C 1161.67,417.167 1161.33,410.833 1161,404.5C 1160.5,404 1160,403.5 1159.5,403C 1152.83,402.667 1146.17,402.333 1139.5,402C 1138.87,401.25 1138.37,400.416 1138,399.5C 1137.33,371.167 1137.33,342.833 1138,314.5C 1138.72,313.956 1139.22,313.289 1139.5,312.5 Z"/></g>
<g><path style="opacity:1" fill="#fafafa" d="M 1164.5,454.5 C 1170.84,454.334 1177.18,454.5 1183.5,455C 1184,455.5 1184.5,456 1185,456.5C 1185.33,470.167 1185.67,483.833 1186,497.5C 1193.09,498.646 1200.25,498.812 1207.5,498C 1208.13,497.25 1208.63,496.416 1209,495.5C 1209.33,482.167 1209.67,468.833 1210,455.5C 1217,454.167 1224,454.167 1231,455.5C 1232.63,468.405 1232.96,481.405 1232,494.5C 1231.17,495.333 1230.33,496.167 1229.5,497C 1222.78,497.204 1216.12,497.704 1209.5,498.5C 1208.81,499.025 1208.31,499.692 1208,500.5C 1207.33,507.167 1207.33,513.833 1208,520.5C 1208.83,521.333 1209.67,522.167 1210.5,523C 1217.17,523.333 1223.83,523.667 1230.5,524C 1231,524.5 1231.5,525 1232,525.5C 1232.67,538.833 1232.67,552.167 1232,565.5C 1231.17,566.333 1230.33,567.167 1229.5,568C 1223.5,568.667 1217.5,568.667 1211.5,568C 1211,567.5 1210.5,567 1210,566.5C 1209.67,552.5 1209.33,538.5 1209,524.5C 1208.17,523.667 1207.33,522.833 1206.5,522C 1200.17,521.333 1193.83,521.333 1187.5,522C 1187,522.5 1186.5,523 1186,523.5C 1185.97,538.26 1185.3,552.926 1184,567.5C 1177.58,568.643 1171.08,568.81 1164.5,568C 1164,567.5 1163.5,567 1163,566.5C 1162.33,529.833 1162.33,493.167 1163,456.5C 1163.72,455.956 1164.22,455.289 1164.5,454.5 Z"/></g>
<g><path style="opacity:1" fill="#f9f9f9" d="M 1188.5,595.5 C 1194.18,595.334 1199.84,595.501 1205.5,596C 1206.42,596.374 1207.25,596.874 1208,597.5C 1208.33,604.167 1208.67,610.833 1209,617.5C 1209.31,618.308 1209.81,618.975 1210.5,619.5C 1217.12,620.296 1223.78,620.796 1230.5,621C 1231,621.5 1231.5,622 1232,622.5C 1232.67,643.5 1232.67,664.5 1232,685.5C 1231.5,686 1231,686.5 1230.5,687C 1223.78,687.204 1217.12,687.704 1210.5,688.5C 1209.81,689.025 1209.31,689.692 1209,690.5C 1208.67,696.833 1208.33,703.167 1208,709.5C 1207.5,710 1207,710.5 1206.5,711C 1200.17,711.667 1193.83,711.667 1187.5,711C 1187,710.5 1186.5,710 1186,709.5C 1185.67,702.833 1185.33,696.167 1185,689.5C 1184.5,689 1184,688.5 1183.5,688C 1176.83,687.667 1170.17,687.333 1163.5,687C 1163,686.5 1162.5,686 1162,685.5C 1161.33,664.5 1161.33,643.5 1162,622.5C 1162.5,622 1163,621.5 1163.5,621C 1170.17,620.667 1176.83,620.333 1183.5,620C 1184,619.5 1184.5,619 1185,618.5C 1185.33,611.833 1185.67,605.167 1186,598.5C 1187.04,597.627 1187.88,596.627 1188.5,595.5 Z"/></g>
<g><path style="opacity:1" fill="#020202" d="M 1187.5,618.5 C 1193.84,618.334 1200.18,618.5 1206.5,619C 1207.42,619.374 1208.25,619.874 1209,620.5C 1209.67,642.833 1209.67,665.167 1209,687.5C 1208.5,688 1208,688.5 1207.5,689C 1200.83,689.667 1194.17,689.667 1187.5,689C 1186.33,688.5 1185.5,687.667 1185,686.5C 1184.33,664.833 1184.33,643.167 1185,621.5C 1185.7,620.309 1186.53,619.309 1187.5,618.5 Z"/></g>
<g><path style="opacity:1" fill="#fbfbfb" d="M 1188.5,739.5 C 1194.95,739.084 1201.29,739.584 1207.5,741C 1208.31,747.753 1208.81,754.586 1209,761.5C 1209.5,762 1210,762.5 1210.5,763C 1216.83,763.333 1223.17,763.667 1229.5,764C 1230.67,764.5 1231.5,765.333 1232,766.5C 1232.67,795.5 1232.67,824.5 1232,853.5C 1231.5,854 1231,854.5 1230.5,855C 1224.17,855.667 1217.83,855.667 1211.5,855C 1210.87,854.25 1210.37,853.416 1210,852.5C 1209.67,823.167 1209.33,793.833 1209,764.5C 1208.25,763.874 1207.42,763.374 1206.5,763C 1200.17,762.333 1193.83,762.333 1187.5,763C 1186.33,763.5 1185.5,764.333 1185,765.5C 1184.67,794.833 1184.33,824.167 1184,853.5C 1183.5,854 1183,854.5 1182.5,855C 1176.17,855.667 1169.83,855.667 1163.5,855C 1163,854.5 1162.5,854 1162,853.5C 1161.33,824.5 1161.33,795.5 1162,766.5C 1162.83,765.667 1163.67,764.833 1164.5,764C 1170.83,763.667 1177.17,763.333 1183.5,763C 1184,762.5 1184.5,762 1185,761.5C 1185.33,755.167 1185.67,748.833 1186,742.5C 1187.04,741.627 1187.88,740.627 1188.5,739.5 Z"/></g>
<g><path style="opacity:1" fill="#fcfcfc" d="M 1210.5,995.5 C 1210.82,973.758 1210.49,952.091 1209.5,930.5C 1210.63,923.246 1210.8,915.913 1210,908.5C 1209.5,908 1209,907.5 1208.5,907C 1201.17,906.333 1193.83,906.333 1186.5,907C 1186,907.5 1185.5,908 1185,908.5C 1184.2,915.913 1184.37,923.246 1185.5,930.5C 1183.53,952.269 1182.86,974.269 1183.5,996.5C 1183.42,997.75 1182.76,998.583 1181.5,999C 1175.5,999.667 1169.5,999.667 1163.5,999C 1162.87,998.25 1162.37,997.416 1162,996.5C 1161.33,967.5 1161.33,938.5 1162,909.5C 1162.5,909 1163,908.5 1163.5,908C 1170.55,907.798 1177.55,907.298 1184.5,906.5C 1185.33,899.858 1185.83,893.191 1186,886.5C 1186.83,885.667 1187.67,884.833 1188.5,884C 1194.5,883.333 1200.5,883.333 1206.5,884C 1207,884.5 1207.5,885 1208,885.5C 1208.33,891.833 1208.67,898.167 1209,904.5C 1209.37,905.416 1209.87,906.25 1210.5,907C 1216.83,907.333 1223.17,907.667 1229.5,908C 1230.67,908.5 1231.5,909.333 1232,910.5C 1232.67,939.167 1232.67,967.833 1232,996.5C 1231.63,997.416 1231.13,998.25 1230.5,999C 1224.5,999.667 1218.5,999.667 1212.5,999C 1211.03,998.29 1210.36,997.124 1210.5,995.5 Z"/></g>
<g><path style="opacity:1" fill="#080808" d="M 1209.5,930.5 C 1208.51,930.328 1207.84,930.662 1207.5,931.5C 1200.83,931.5 1194.17,931.5 1187.5,931.5C 1187.16,930.662 1186.49,930.328 1185.5,930.5C 1184.37,923.246 1184.2,915.913 1185,908.5C 1185.5,908 1186,907.5 1186.5,907C 1193.83,906.333 1201.17,906.333 1208.5,907C 1209,907.5 1209.5,908 1210,908.5C 1210.8,915.913 1210.63,923.246 1209.5,930.5 Z"/></g>
<g><path style="opacity:1" fill="#f6f6f6" d="M 1187.5,931.5 C 1194.17,931.5 1200.83,931.5 1207.5,931.5C 1208.17,931.5 1208.5,931.833 1208.5,932.5C 1208.67,939.175 1208.5,945.842 1208,952.5C 1207.5,953 1207,953.5 1206.5,954C 1199.92,954.81 1193.42,954.643 1187,953.5C 1185.58,946.615 1185.08,939.615 1185.5,932.5C 1186.17,932.167 1186.83,931.833 1187.5,931.5 Z"/></g>
<g><path style="opacity:1" fill="#bbbbbb" d="M 1185.5,930.5 C 1186.49,930.328 1187.16,930.662 1187.5,931.5C 1186.83,931.833 1186.17,932.167 1185.5,932.5C 1184.83,953.833 1184.17,975.167 1183.5,996.5C 1182.86,974.269 1183.53,952.269 1185.5,930.5 Z"/></g>
<g><path style="opacity:1" fill="#c2c2c2" d="M 1207.5,931.5 C 1207.84,930.662 1208.51,930.328 1209.5,930.5C 1210.49,952.091 1210.82,973.758 1210.5,995.5C 1209.83,974.5 1209.17,953.5 1208.5,932.5C 1208.5,931.833 1208.17,931.5 1207.5,931.5 Z"/></g>
<g><path style="opacity:0.956" fill="#000000" d="M 709.5,1122.5 C 733.251,1121.75 754.251,1128.75 772.5,1143.5C 766.851,1148.32 760.851,1152.66 754.5,1156.5C 720.966,1137.84 690.466,1141.84 663,1168.5C 643.688,1193.93 641.354,1220.93 656,1249.5C 677.078,1279.53 705.244,1289.03 740.5,1278C 769.065,1264.74 784.065,1242.24 785.5,1210.5C 791.307,1206.53 796.974,1202.36 802.5,1198C 803.744,1197.54 804.577,1198.04 805,1199.5C 809.37,1244.94 791.204,1277.77 750.5,1298C 705.224,1313.24 668.058,1302.07 639,1264.5C 622.75,1237.14 620.083,1208.47 631,1178.5C 646.797,1145.19 672.963,1126.53 709.5,1122.5 Z"/></g>
<g><path style="opacity:0.953" fill="#000000" d="M 909.5,1157.5 C 924.095,1156.04 937.762,1158.88 950.5,1166C 953.148,1167.65 955.481,1169.65 957.5,1172C 952.294,1176.95 946.627,1181.45 940.5,1185.5C 921.054,1174.11 903.887,1176.77 889,1193.5C 881.388,1207.74 881.721,1221.74 890,1235.5C 906.449,1251.7 924.616,1253.7 944.5,1241.5C 950.01,1245.09 955.343,1248.92 960.5,1253C 946.992,1266.47 930.659,1272.14 911.5,1270C 878.733,1265.4 861.4,1246.57 859.5,1213.5C 861.461,1181.52 878.128,1162.85 909.5,1157.5 Z"/></g>
<g><path style="opacity:0.95" fill="#000000" d="M 784.5,1158.5 C 786.903,1158.39 788.736,1159.39 790,1161.5C 793.033,1166.37 795.867,1171.37 798.5,1176.5C 771.077,1197.43 743.243,1217.76 715,1237.5C 703.412,1230.91 692.079,1223.91 681,1216.5C 680.168,1207.48 680.335,1198.48 681.5,1189.5C 692.751,1196.37 703.918,1203.37 715,1210.5C 738.35,1193.3 761.517,1175.97 784.5,1158.5 Z"/></g>
<g><path style="opacity:0.964" fill="#000000" d="M 979.5,1158.5 C 1010.84,1158.17 1042.17,1158.5 1073.5,1159.5C 1065.72,1165.9 1057.72,1172.06 1049.5,1178C 1034.17,1178.5 1018.84,1178.67 1003.5,1178.5C 1003.5,1186.17 1003.5,1193.83 1003.5,1201.5C 1016.5,1201.33 1029.5,1201.5 1042.5,1202C 1068.68,1207.22 1077.85,1222.72 1070,1248.5C 1064.91,1258.64 1056.74,1264.81 1045.5,1267C 1023.54,1268.44 1001.54,1268.94 979.5,1268.5C 979.5,1231.83 979.5,1195.17 979.5,1158.5 Z M 1003.5,1220.5 C 1015.23,1220.09 1026.9,1220.59 1038.5,1222C 1048.51,1225.85 1051.34,1232.69 1047,1242.5C 1045.06,1245.11 1042.56,1246.94 1039.5,1248C 1027.56,1249.41 1015.56,1249.91 1003.5,1249.5C 1003.5,1239.83 1003.5,1230.17 1003.5,1220.5 Z"/></g>
<g><path style="opacity:0.965" fill="#000000" d="M 1093.5,1158.5 C 1121.17,1158.17 1148.84,1158.5 1176.5,1159.5C 1168.67,1165.83 1160.67,1171.99 1152.5,1178C 1140.84,1178.5 1129.17,1178.67 1117.5,1178.5C 1117.5,1186.83 1117.5,1195.17 1117.5,1203.5C 1134.5,1203.5 1151.5,1203.5 1168.5,1203.5C 1168.5,1209.83 1168.5,1216.17 1168.5,1222.5C 1151.5,1222.5 1134.5,1222.5 1117.5,1222.5C 1117.5,1231.5 1117.5,1240.5 1117.5,1249.5C 1137.17,1249.5 1156.83,1249.5 1176.5,1249.5C 1176.5,1255.83 1176.5,1262.17 1176.5,1268.5C 1148.83,1268.5 1121.17,1268.5 1093.5,1268.5C 1093.5,1231.83 1093.5,1195.17 1093.5,1158.5 Z"/></g>
<g><path style="opacity:0.954" fill="#000000" d="M 1197.5,1158.5 C 1213.84,1158.33 1230.17,1158.5 1246.5,1159C 1281.22,1162.05 1294.72,1180.55 1287,1214.5C 1280.75,1227.73 1270.25,1235.23 1255.5,1237C 1244.51,1237.5 1233.51,1237.67 1222.5,1237.5C 1222.5,1247.83 1222.5,1258.17 1222.5,1268.5C 1214.17,1268.5 1205.83,1268.5 1197.5,1268.5C 1197.5,1231.83 1197.5,1195.17 1197.5,1158.5 Z M 1222.5,1178.5 C 1232.91,1178.07 1243.25,1178.57 1253.5,1180C 1261.39,1183.6 1265.39,1189.76 1265.5,1198.5C 1265.39,1207.24 1261.39,1213.4 1253.5,1217C 1243.25,1218.43 1232.91,1218.93 1222.5,1218.5C 1222.5,1205.17 1222.5,1191.83 1222.5,1178.5 Z"/></g>
</svg>
