<svg width="120" height="121" viewBox="0 0 120 121" fill="none" xmlns="http://www.w3.org/2000/svg">
<path fill-rule="evenodd" clip-rule="evenodd" d="M79.5153 107.568C78.357 107.294 77.3575 107.058 77.3575 106.247C77.3575 105.162 78.6894 105.045 79.2621 105.045C80.0559 105.045 80.5072 105.155 81.0987 105.424C81.3858 105.212 82.6949 104.245 82.6949 104.245C81.8319 103.694 80.5359 103.263 79.2759 103.263C76.2725 103.263 75.2025 104.864 75.2025 106.363C75.2025 108.522 77.0741 108.971 78.7254 109.367C79.8855 109.646 80.8873 109.887 80.8873 110.709C80.8873 111.131 80.6362 111.839 78.9547 111.839C77.8385 111.839 76.6159 111.446 75.7475 110.811L75.0176 112.485C75.9023 113.177 77.4363 113.622 78.9409 113.622C81.4319 113.622 83.0422 112.411 83.0422 110.536C83.0422 108.401 81.1685 107.958 79.5153 107.568Z" fill="white"/>
<path fill-rule="evenodd" clip-rule="evenodd" d="M89.8863 111.784H87.1991V109.221H89.8863C91.1133 109.221 91.7354 109.647 91.7354 110.502C91.7354 111.36 91.1304 111.784 89.8863 111.784ZM87.1991 107.554H89.4954H87.1991ZM87.1991 105.106H89.4954C90.9426 105.106 91.2463 105.775 91.2463 106.33C91.2463 107.135 90.6406 107.554 89.4954 107.554H87.1991V105.106ZM92.1623 108.287L92.0587 108.254L92.1546 108.201C92.9765 107.754 93.4289 106.98 93.4289 106.019C93.4289 104.403 92.0627 103.438 89.7744 103.438H85.0449V113.451H90.0542C92.5456 113.451 93.9179 112.489 93.9179 110.741C93.9179 109.551 93.2781 108.657 92.1623 108.287Z" fill="white"/>
<path fill-rule="evenodd" clip-rule="evenodd" d="M101.22 105.102L103.476 103.435H95.9258V113.447H103.476V111.78H98.0804V109.217H102.683V107.55H98.0804V105.102H101.22Z" fill="white"/>
<path fill-rule="evenodd" clip-rule="evenodd" d="M107.637 105.105H109.547C110.928 105.105 111.688 105.788 111.688 107.026C111.688 108.265 110.928 108.948 109.547 108.948H107.637V105.105ZM113.999 113.451L111.806 110.198C113.1 109.632 113.846 108.516 113.846 107.021C113.846 104.811 112.216 103.438 109.593 103.438H105.482V113.451H107.637V110.615H109.593C109.655 110.615 109.715 110.613 109.775 110.612L111.69 113.451H113.999Z" fill="white"/>
<path fill-rule="evenodd" clip-rule="evenodd" d="M70.2106 108.442C70.2106 107.934 70.1648 107.435 70.0776 106.951L68.2918 108.271C68.2932 108.329 68.294 108.385 68.294 108.442C68.294 111.97 65.4316 114.84 61.9127 114.84C58.3945 114.84 55.5322 111.97 55.5322 108.442C55.5322 104.914 58.3945 102.044 61.9127 102.044C63.2465 102.044 64.4855 102.457 65.5101 103.161L67.1244 101.968C65.6997 100.814 63.8871 100.122 61.9131 100.122C57.3303 100.122 53.6152 103.847 53.6152 108.442C53.6152 113.037 57.3303 116.762 61.9131 116.762C66.4955 116.762 70.2106 113.037 70.2106 108.442Z" fill="white"/>
<path fill-rule="evenodd" clip-rule="evenodd" d="M68.475 103.354C68.8671 103.863 69.202 104.417 69.4695 105.008L61.9092 110.596L58.75 108.61V106.221L61.9092 108.207L68.475 103.354Z" fill="white"/>
<path fill-rule="evenodd" clip-rule="evenodd" d="M97.5166 21.3182C96.8815 20.6814 96.5251 19.8179 96.5251 18.9174V7.88351C96.5251 6.17453 95.1433 4.78906 93.4386 4.78906H83.4127C81.7079 4.78906 80.3262 6.17453 80.3262 7.88351V17.937C80.3262 19.6456 81.7079 21.0315 83.4127 21.0315H94.4116C95.3097 21.0315 96.1708 21.3888 96.8059 22.0257L96.8088 22.0286C97.4436 22.665 97.8004 23.5284 97.8004 24.429V88.0168C97.8004 89.7257 99.1822 91.1112 100.887 91.1112H110.913C112.618 91.1112 113.999 89.7257 113.999 88.0168V25.4072C113.999 23.6978 112.618 22.3124 110.913 22.3124H99.911C99.0128 22.3124 98.1517 21.955 97.5166 21.3182Z" fill="#00FFAF"/>
<path fill-rule="evenodd" clip-rule="evenodd" d="M22.185 57.0799L22.1977 57.0672C22.8325 56.434 23.6914 56.0784 24.5863 56.0784H51.7997C53.4965 56.0784 54.8717 54.6992 54.8717 52.9978V41.9345C54.8717 41.0415 55.2267 40.1854 55.8582 39.5552L55.8702 39.5435C56.5049 38.9103 57.3638 38.5548 58.2595 38.5548H69.274C70.9704 38.5548 72.3463 37.1755 72.3463 35.4742V25.393C72.3463 23.692 70.9704 22.3124 69.274 22.3124H58.258C57.3598 22.3124 56.4987 21.9546 55.864 21.3182C55.2289 20.6814 54.8717 19.8179 54.8717 18.9174V7.86967C54.8717 6.16834 53.4965 4.78906 51.7997 4.78906H8.12323C6.39848 4.78906 5 6.19093 5 7.92104V17.8995C5 19.6292 6.39848 21.0315 8.12323 21.0315H52.7571C53.6564 21.0315 54.5186 21.3896 55.1544 22.0271C55.7902 22.6647 56.1478 23.5292 56.1478 24.4308V36.4469C56.1478 37.3445 55.791 38.2054 55.1562 38.8389L55.1479 38.8473C54.5135 39.4805 53.6545 39.836 52.7597 39.836H25.5462C23.8498 39.836 22.4742 41.2153 22.4742 42.9166V53.9713C22.4742 54.8667 22.1193 55.7254 21.4881 56.359L21.4769 56.3695C20.8454 57.0027 19.9894 57.3586 19.0963 57.3586H8.07236C6.37559 57.3586 5 58.7379 5 60.4392V70.5204C5 72.2217 6.37522 73.6006 8.07236 73.6006H19.1076C20.0003 73.6006 20.857 73.9562 21.4881 74.5898H21.4885C22.1196 75.2226 22.4742 76.0812 22.4742 76.9763V88.0302C22.4742 89.7316 23.8498 91.1105 25.5462 91.1108L69.2227 91.1112C70.9478 91.1112 72.3463 89.709 72.3463 87.9792V78.0008C72.3463 76.271 70.9478 74.8688 69.2227 74.8688L24.5859 74.8681C23.6907 74.8681 22.8318 74.5129 22.197 73.8797L22.185 73.8681C21.5539 73.2385 21.1989 72.3824 21.1989 71.4898V59.4585C21.1989 58.5656 21.5539 57.7098 22.185 57.0799Z" fill="#00FFAF"/>
<path fill-rule="evenodd" clip-rule="evenodd" d="M107.553 52.152L107.513 52.1116C107.454 52.0518 107.42 51.9702 107.42 51.8857V50.7104C107.42 50.5341 107.277 50.3906 107.101 50.3906H104.232C104.148 50.3906 104.066 50.357 104.007 50.2969L103.986 50.2758C103.926 50.2161 103.892 50.1344 103.892 50.0496V47.1646C103.892 46.9875 103.75 46.8447 103.574 46.8447H102.514C102.338 46.8447 102.195 46.9875 102.195 47.1646V55.5681C102.195 55.7445 102.338 55.8876 102.514 55.8876H103.574C103.75 55.8876 103.892 55.7445 103.892 55.5681V50.3308L103.932 50.3712C103.992 50.431 104.026 50.5126 104.026 50.5971V51.7728C104.026 51.9491 104.169 52.0923 104.345 52.0923H107.213C107.298 52.0923 107.379 52.1261 107.439 52.1859L107.46 52.207C107.52 52.2668 107.553 52.3484 107.553 52.4329V55.5681C107.553 55.7445 107.696 55.8876 107.872 55.8876H108.932C109.107 55.8876 109.251 55.7445 109.251 55.5681V47.1646C109.251 46.9875 109.107 46.8447 108.932 46.8447H107.872C107.696 46.8447 107.553 46.9875 107.553 47.1646V52.152Z" fill="#212121"/>
<path fill-rule="evenodd" clip-rule="evenodd" d="M107.461 43.328L107.445 43.344C107.384 43.4056 107.301 43.4402 107.214 43.4402H105.727H104.239C104.153 43.4402 104.069 43.4056 104.008 43.344L103.992 43.328C103.931 43.2664 103.896 43.183 103.896 43.0959V38.1446C103.896 38.0575 103.931 37.9745 103.992 37.9129L104.008 37.8965C104.07 37.8349 104.153 37.8003 104.24 37.8003H107.213C107.3 37.8003 107.383 37.8349 107.445 37.8965L107.461 37.9129C107.522 37.9745 107.557 38.0575 107.557 38.1446V39.3078C107.557 39.4893 107.703 39.6357 107.884 39.6357H108.927C109.107 39.6357 109.254 39.4893 109.254 39.3078V38.2626C109.254 38.0816 109.107 37.9344 108.927 37.9344H107.767C107.68 37.9344 107.597 37.9001 107.536 37.8386L107.52 37.8225C107.458 37.761 107.424 37.6772 107.424 37.5905V36.4269C107.424 36.2458 107.277 36.0986 107.096 36.0986H104.357C104.176 36.0986 104.03 36.2458 104.03 36.4269V37.5901C104.03 37.6772 103.995 37.7606 103.934 37.8222L103.918 37.8386C103.856 37.9001 103.773 37.9344 103.686 37.9344H102.526C102.346 37.9344 102.199 38.0816 102.199 38.2626V42.9779C102.199 43.159 102.346 43.3058 102.526 43.3058H103.686C103.773 43.3058 103.856 43.3404 103.917 43.402L103.934 43.4183C103.995 43.4799 104.03 43.5633 104.03 43.6504V44.8137C104.03 44.9947 104.176 45.1419 104.357 45.1419H106.224H107.096C107.277 45.1419 107.424 44.9947 107.424 44.8133V43.6504C107.424 43.5633 107.458 43.4799 107.52 43.4183L107.534 43.4034C107.596 43.3418 107.679 43.3072 107.766 43.3072H108.927C109.108 43.3072 109.254 43.1604 109.254 42.9794V41.9338C109.254 41.7527 109.108 41.6055 108.927 41.6055H107.884C107.704 41.6055 107.557 41.7527 107.557 41.9338V43.0956C107.557 43.183 107.523 43.2664 107.461 43.328Z" fill="#212121"/>
<path fill-rule="evenodd" clip-rule="evenodd" d="M107.441 59.3883L107.457 59.4047C107.519 59.4663 107.554 59.5497 107.554 59.6371V64.5878C107.554 64.6752 107.519 64.7586 107.457 64.8202L107.442 64.8358C107.38 64.8974 107.297 64.932 107.21 64.9324H104.236C104.149 64.9324 104.066 64.8978 104.004 64.8362L103.988 64.8198C103.927 64.7582 103.892 64.6752 103.892 64.5878V59.6371C103.892 59.5497 103.927 59.4663 103.988 59.4047L104.005 59.3883C104.066 59.3268 104.149 59.2921 104.236 59.2921H107.21C107.297 59.2921 107.38 59.3268 107.441 59.3883ZM107.42 59.0823V57.9191C107.42 57.7376 107.274 57.5908 107.093 57.5908H104.353C104.173 57.5908 104.026 57.7376 104.026 57.9191V59.0823C104.026 59.169 103.992 59.2528 103.93 59.3144L103.914 59.3304C103.853 59.392 103.77 59.4262 103.683 59.4262H102.523C102.342 59.4262 102.195 59.5734 102.195 59.7548V64.4701C102.195 64.6511 102.342 64.7983 102.523 64.7983H103.682C103.77 64.7983 103.852 64.8326 103.914 64.8941L103.93 64.9105C103.992 64.9721 104.026 65.0555 104.026 65.1426V66.3055C104.026 66.4865 104.173 66.6337 104.353 66.6337H107.093C107.274 66.6337 107.42 66.4865 107.42 66.3055V65.1426C107.42 65.0555 107.455 64.9721 107.516 64.9105L107.531 64.8952C107.592 64.8337 107.675 64.7994 107.762 64.7994H108.923C109.104 64.7994 109.25 64.6522 109.25 64.4712V59.7548C109.25 59.5734 109.104 59.4262 108.923 59.4262H107.763C107.676 59.4262 107.593 59.392 107.532 59.3304L107.516 59.3144C107.455 59.2528 107.42 59.1694 107.42 59.0823Z" fill="#212121"/>
<path fill-rule="evenodd" clip-rule="evenodd" d="M107.441 70.1309L107.457 70.1473C107.519 70.2088 107.554 70.2919 107.554 70.3793V75.3303C107.554 75.4174 107.519 75.5008 107.457 75.5624L107.442 75.5784C107.38 75.64 107.297 75.6746 107.21 75.6746H104.236C104.149 75.6746 104.066 75.64 104.004 75.5784L103.988 75.562C103.927 75.5008 103.892 75.4174 103.892 75.3299V70.3793C103.892 70.2919 103.927 70.2088 103.988 70.1473L104.005 70.1309C104.066 70.0693 104.149 70.0343 104.236 70.0343H107.21C107.297 70.0343 107.38 70.0693 107.441 70.1309ZM107.42 69.8249V68.6613C107.42 68.4802 107.274 68.333 107.093 68.333H104.353C104.173 68.333 104.026 68.4802 104.026 68.6613V69.8245C104.026 69.9116 103.992 69.995 103.93 70.0566L103.914 70.073C103.853 70.1345 103.77 70.1688 103.683 70.1688H102.523C102.342 70.1688 102.195 70.3159 102.195 70.497V75.2123C102.195 75.3933 102.342 75.5405 102.523 75.5405H103.682C103.77 75.5405 103.852 75.5748 103.914 75.6363L103.93 75.6527C103.992 75.7143 104.026 75.7981 104.026 75.8848V77.0477C104.026 77.2291 104.173 77.3763 104.353 77.3763L107.093 77.3759C107.274 77.3759 107.42 77.2291 107.42 77.0477V75.8848C107.42 75.7977 107.455 75.7143 107.516 75.6527L107.531 75.6378C107.592 75.5762 107.675 75.542 107.762 75.542H108.923C109.104 75.542 109.25 75.3948 109.25 75.2134V70.497C109.25 70.3159 109.104 70.1688 108.923 70.1688H107.763C107.676 70.1688 107.593 70.1345 107.532 70.073L107.516 70.0569C107.455 69.9954 107.42 69.9116 107.42 69.8249Z" fill="#212121"/>
<path fill-rule="evenodd" clip-rule="evenodd" d="M104.026 25.6843V26.8476C104.026 26.935 103.991 27.0181 103.93 27.0796L103.914 27.0957C103.852 27.1572 103.769 27.1922 103.683 27.1922H102.522C102.342 27.1922 102.195 27.3387 102.195 27.5201V28.5653C102.195 28.7463 102.342 28.8935 102.522 28.8935H103.683C103.769 28.8935 103.852 28.9278 103.914 28.9893L103.93 29.0057C103.991 29.0673 104.026 29.1507 104.026 29.2378V30.401C104.026 30.5821 104.172 30.7293 104.353 30.7293H107.21C107.297 30.7293 107.38 30.7635 107.441 30.8251L107.457 30.8415C107.519 30.9031 107.553 30.9865 107.553 31.0736V32.3534C107.553 32.4405 107.519 32.5235 107.457 32.5851L107.441 32.6015C107.38 32.663 107.297 32.6977 107.21 32.6977H102.522C102.342 32.6977 102.195 32.8445 102.195 33.0255V34.0711C102.195 34.2522 102.342 34.399 102.522 34.399H107.092C107.273 34.399 107.42 34.2522 107.42 34.0711V32.9079C107.42 32.8208 107.455 32.7374 107.516 32.6758L107.531 32.6609C107.592 32.5993 107.675 32.565 107.762 32.565H108.923C109.104 32.565 109.251 32.4179 109.251 32.2364V31.1912C109.251 31.0102 109.104 30.8634 108.923 30.8634H107.763C107.677 30.8634 107.593 30.8287 107.532 30.7672L107.516 30.7508C107.455 30.6892 107.42 30.6062 107.42 30.5191V29.3558C107.42 29.1744 107.273 29.0276 107.092 29.0276H104.236C104.149 29.0276 104.066 28.993 104.004 28.9314L103.988 28.915C103.927 28.8535 103.892 28.7704 103.892 28.683V27.4024C103.892 27.3153 103.927 27.2319 103.988 27.1703L104.004 27.1536C104.066 27.0924 104.149 27.0578 104.236 27.0578H108.923C109.104 27.0578 109.251 26.9106 109.251 26.7295V25.6843C109.251 25.5033 109.104 25.3564 108.923 25.3564H104.353C104.172 25.3564 104.026 25.5033 104.026 25.6843Z" fill="#212121"/>
<path fill-rule="evenodd" clip-rule="evenodd" d="M104.008 86.3245L103.992 86.3081C103.931 86.2465 103.896 86.1635 103.896 86.076V79.4073C103.896 79.2263 103.75 79.0791 103.569 79.0791H102.526C102.346 79.0791 102.199 79.2263 102.199 79.4073V85.9584C102.199 86.1394 102.346 86.2866 102.526 86.2866H103.686C103.773 86.2866 103.856 86.3208 103.918 86.3824L103.934 86.3988C103.995 86.4604 104.03 86.5438 104.03 86.6309V87.7941C104.03 87.9752 104.176 88.1224 104.357 88.1224H108.927C109.107 88.1224 109.254 87.9752 109.254 87.7941V86.7489C109.254 86.5675 109.107 86.4207 108.927 86.4207H104.24C104.153 86.4207 104.07 86.3861 104.008 86.3245Z" fill="#212121"/>
</svg>
